<svg width="18" height="18" fill="none" xmlns="http://www.w3.org/2000/svg"><path d="M10.92 3.015v-.05H9.357v12.65c0 .12-.031.2-.086.252-.055.052-.142.083-.271.083h-.315c-.129 0-.216-.03-.271-.083-.055-.051-.086-.132-.086-.252v-7.47h-.05c-.45 0-.87-.08-1.259-.241-.39-.161-.73-.38-1.022-.655a3.115 3.115 0 01-.692-.965 2.789 2.789 0 01-.255-1.186c0-.425.085-.82.255-1.187.17-.368.4-.69.692-.965a3.317 3.317 0 011.022-.655c.389-.16.808-.241 1.259-.241h3.315c.128 0 .216.03.27.083.055.051.087.132.087.252v13.23c0 .12-.032.2-.086.252-.055.052-.143.083-.271.083h-.315c-.129 0-.216-.03-.271-.083-.055-.051-.087-.132-.087-.252v-12.6z" fill="#4F66EE" stroke="#F8F8F8" stroke-width=".1"/></svg>