<svg width="18" height="18" fill="none" xmlns="http://www.w3.org/2000/svg"><g clip-path="url(#clip0)" fill="#4F66EE"><path d="M9.48 5.797a1.753 1.753 0 100 3.506 1.753 1.753 0 000-3.506z"/><path d="M9.27 15.982l.21.19.21-.19c1.252-1.134 2.556-2.582 3.548-4.065.986-1.473 1.697-3.028 1.697-4.367a5.455 5.455 0 10-10.91 0c0 1.34.711 2.894 1.697 4.367.992 1.483 2.296 2.93 3.548 4.065zm-4.858-13.5A7.167 7.167 0 0116.648 7.55c0 1.964-1.088 4.164-2.58 6.167-1.421 1.91-3.176 3.595-4.588 4.663-1.412-1.068-3.167-2.753-4.589-4.663-1.49-2.003-2.579-4.203-2.579-6.167 0-1.9.756-3.724 2.1-5.068z" stroke="#fff" stroke-width=".625"/></g><defs><clipPath id="clip0"><path d="M0 0h18v18H0V0z" fill="#fff"/></clipPath></defs></svg>