<svg width="18" height="18" fill="none" xmlns="http://www.w3.org/2000/svg"><path d="M11.205 17.608h-.001a5.004 5.004 0 01-3.583-1.452s0 0 0 0l-5.912-5.913-.001-.001C-.341 8.211-.22 4.752 2 2.532c0 0 0 0 0 0L4.048.508h0a.875.875 0 01.285-.191L4.237.086l.096.23a.875.875 0 01.67 0L5.1.087l-.096.23a.875.875 0 01.284.191h0l3.807 3.816h0a.875.875 0 010 1.24s0 0 0 0l-1.763 1.75-.179.176.178.178 2.867 2.862.176.176.177-.176 1.75-1.75s0 0 0 0a.875.875 0 011.236 0l3.82 3.82s0 0 0 0a.875.875 0 010 1.235s0 0 0 0l-2.03 2.03h0a5.852 5.852 0 01-4.122 1.744zM2.952 9.002v.001l5.904 5.913h0c1.382 1.382 3.733 1.211 5.237-.292l1.228-1.229.176-.175-.175-.177-2.223-2.25-.176-.179-.178.177-1.75 1.746-.001.001a.875.875 0 01-1.24 0h0L5.3 8.083h0a.87.87 0 010-1.235h0l1.75-1.75.178-.178-.179-.177-2.227-2.205-.178-.176-.176.177-1.223 1.233s0 0 0 0c-1.504 1.504-1.673 3.836-.293 5.23z" fill="#4F66EE" stroke="#fff" stroke-width=".5"/></svg>