<svg width="18" height="18" fill="none" xmlns="http://www.w3.org/2000/svg"><path d="M11.503 8.65a.5.5 0 00-.05.641c.367.513.867.793 1.314 1.02l.204.104c.386.193.734.368 1.064.643.719.597 1.44 1.76 1.44 4.942v.025A.463.463 0 0115 16.5H3a.463.463 0 01-.475-.5c0-2.913.712-4.098 1.455-4.768.343-.31.707-.525 1.097-.756l.185-.11c.443-.266.928-.576 1.285-1.075a.5.5 0 00-.05-.64C5.897 8.035 5.5 6.977 5.5 6a3.5 3.5 0 117 0c0 .978-.397 2.036-.997 2.65z" stroke="#4F66EE" stroke-linecap="square" stroke-linejoin="round"/></svg>