<svg width="18" height="18" fill="none" xmlns="http://www.w3.org/2000/svg"><path d="M11.204 17.546h0a4.943 4.943 0 01-3.539-1.435s0 0 0 0l-5.912-5.913h-.001c-2.02-2.004-1.905-5.422.293-7.62v-.002L4.092.553h0L4.093.55a.813.813 0 011.15 0h0l3.808 3.816h0a.813.813 0 010 1.151s0 0 0 0l-1.763 1.75-.223.221.222.222 2.866 2.862.221.22.221-.22 1.75-1.75s0 0 0 0a.813.813 0 011.147 0s0 0 0 0l3.82 3.82s0 0 0 0a.813.813 0 010 1.147s0 0 0 0l-2.029 2.029h0l-.001.002a5.79 5.79 0 01-4.078 1.725zm-8.297-8.5l.001.001 5.904 5.913h0c1.411 1.411 3.802 1.23 5.325-.292l1.228-1.228.22-.22-.218-.221-2.223-2.25-.221-.224-.222.222-1.75 1.746h-.001a.812.812 0 01-1.15 0h-.001L5.344 8.04v-.001a.808.808 0 010-1.145v-.001l1.75-1.75.222-.223-.223-.22-2.227-2.206-.222-.22-.22.222-1.223 1.233s0 0 0 0c-1.524 1.524-1.702 3.895-.294 5.318z" fill="#4F66EE" stroke="#fff" stroke-width=".625"/></svg>