<svg width="18" height="18" fill="none" xmlns="http://www.w3.org/2000/svg"><path d="M4.576 12.513c0 .08-.029.15-.088.209a.285.285 0 01-.209.088h-.45c-.081 0-.151-.03-.21-.088a.286.286 0 01-.088-.209V6.452L1.75 7.805a.25.25 0 01-.22.066.334.334 0 01-.198-.11l-.264-.341a.302.302 0 01-.066-.22.315.315 0 01.121-.198l2.354-1.804a.371.371 0 01.176-.077c.059-.007.118-.011.176-.011h.451c.081 0 .15.03.21.088a.286.286 0 01.087.209v7.106zM9.382 8.762c.22-.198.385-.4.495-.605.11-.205.165-.473.165-.803 0-.389-.113-.711-.34-.968-.228-.264-.587-.396-1.079-.396-.256 0-.476.037-.66.11a1.299 1.299 0 00-.45.308 1.519 1.519 0 00-.287.44c-.066.161-.12.33-.165.506a.335.335 0 01-.12.187.25.25 0 01-.166.066H6.27a.263.263 0 01-.176-.066.263.263 0 01-.066-.176c.008-.271.07-.546.187-.825.118-.279.286-.532.506-.759a2.67 2.67 0 01.803-.561 2.63 2.63 0 011.1-.22c.404 0 .76.062 1.067.187a2.071 2.071 0 011.232 1.254c.11.286.165.59.165.913 0 .235-.018.447-.055.638a2.12 2.12 0 01-.187.55c-.08.169-.187.334-.319.495a4.341 4.341 0 01-.484.495L7.59 11.82h3.366c.08 0 .15.03.21.088a.286.286 0 01.087.209v.396c0 .08-.03.15-.088.209a.286.286 0 01-.209.088h-4.74c-.081 0-.151-.03-.21-.088a.286.286 0 01-.088-.209v-.396c0-.08.019-.15.055-.209.037-.059.1-.128.187-.209l3.223-2.937zM13.277 10.951c.036.117.088.235.154.352.066.117.165.224.297.319.132.088.304.161.517.22.22.059.502.088.847.088.227 0 .443-.026.649-.077a1.61 1.61 0 00.539-.264c.154-.117.275-.26.363-.429.095-.176.143-.385.143-.627 0-.235-.044-.433-.132-.594a.998.998 0 00-.363-.396 1.434 1.434 0 00-.528-.22 3.203 3.203 0 00-.671-.066h-.913c-.081 0-.15-.03-.21-.088a.285.285 0 01-.087-.209v-.396c0-.066.018-.125.055-.176.044-.059.084-.11.12-.154l1.98-2.134H12.87c-.081 0-.15-.03-.21-.088a.285.285 0 01-.087-.209v-.396c0-.08.029-.15.088-.209a.286.286 0 01.209-.088h4.334c.08 0 .15.03.209.088a.285.285 0 01.088.209v.396a.404.404 0 01-.055.198 1.005 1.005 0 01-.143.176l-1.947 2.101c.366.007.7.066 1 .176.309.103.569.253.782.451.22.19.388.425.506.704.124.271.187.58.187.924 0 .374-.074.711-.22 1.012a2.277 2.277 0 01-.594.748 2.657 2.657 0 01-.87.462c-.33.11-.681.165-1.055.165-.492 0-.917-.055-1.276-.165a2.916 2.916 0 01-.88-.451c-.228-.19-.4-.4-.517-.627a1.8 1.8 0 01-.176-.715c0-.066.022-.121.066-.165a.242.242 0 01.176-.077h.506c.08 0 .143.026.187.077a.295.295 0 01.099.154z" fill="#4F66EE"/></svg>