<svg width="19" height="18" fill="none" xmlns="http://www.w3.org/2000/svg"><path d="M4.586 17.117h0l-4.05-4.956h0l-.003-.003a1.17 1.17 0 01-.206-.369 1.395 1.395 0 01-.006-.903l-.236-.08.236.08a1.18 1.18 0 01.203-.373.888.888 0 01.288-.234.698.698 0 01.642.008.9.9 0 01.285.242h0l.003.004 3.253 3.982.194.237.193-.237L16.29 1.167c.17-.2.386-.298.596-.296.212.003.427.107.595.313.169.207.27.496.272.806.002.309-.096.6-.262.81V2.8L5.791 17.117h0a.886.886 0 01-.285.234.694.694 0 01-.317.077h-.002a.694.694 0 01-.318-.077.886.886 0 01-.284-.233z" fill="#4F66EE" stroke="#fff" stroke-width=".5"/></svg>