<svg width="17" height="18" fill="none" xmlns="http://www.w3.org/2000/svg"><path d="M4.475 14a.208.208 0 01-.152-.064.208.208 0 01-.064-.152v-.288c0-.059.021-.11.064-.152a.208.208 0 01.152-.064h1.28V9.376l-.96.728a.182.182 0 01-.16.048.243.243 0 01-.144-.08L4.3 9.824a.22.22 0 01-.048-.16.229.229 0 01.088-.144l1.376-1.056a.27.27 0 01.128-.056c.043-.005.085-.008.128-.008H6.3c.059 0 .11.021.152.064a.208.208 0 01.064.152v4.664h1.28c.059 0 .11.021.152.064a.208.208 0 01.064.152v.288c0 .059-.021.11-.064.152a.208.208 0 01-.152.064h-3.32zM9.7 12.544c.07.25.221.45.456.6.235.144.507.216.816.216.176 0 .341-.024.496-.072.155-.048.288-.12.4-.216a.963.963 0 00.272-.36c.07-.15.104-.32.104-.512s-.035-.36-.104-.504a.95.95 0 00-.272-.368 1.113 1.113 0 00-.4-.216 1.665 1.665 0 00-.496-.072 1.366 1.366 0 00-.784.216 3.501 3.501 0 00-.208.144.344.344 0 01-.208.064h-.408a.191.191 0 01-.128-.048.191.191 0 01-.048-.128l.24-2.672c0-.059.021-.11.064-.152a.208.208 0 01.152-.064h2.824c.059 0 .11.021.152.064a.208.208 0 01.064.152v.288c0 .059-.021.11-.064.152a.208.208 0 01-.152.064H10.14l-.128 1.384c.09-.043.213-.083.368-.12.16-.043.357-.064.592-.064.277 0 .539.043.784.128.25.085.467.21.648.376.187.16.333.357.44.592.107.23.16.49.16.784 0 .293-.053.557-.16.792a1.79 1.79 0 01-1.088.96 2.37 2.37 0 01-.784.128c-.267 0-.523-.037-.768-.112a2.235 2.235 0 01-.64-.312 1.736 1.736 0 01-.44-.488 1.28 1.28 0 01-.176-.624c0-.048.016-.088.048-.12a.176.176 0 01.128-.056h.368c.043 0 .083.016.12.048.043.027.072.07.088.128zM12 .5a.5.5 0 011 0V2h-1V.5z" fill="#4F66EE"/><path d="M13 3a.5.5 0 01-1 0V1.5h1V3zM4 .5a.5.5 0 011 0V2H4V.5z" fill="#4F66EE"/><path d="M5 3a.5.5 0 01-1 0V1.5h1V3z" fill="#4F66EE"/><path d="M1 1.5h15a.5.5 0 01.5.5v15a.5.5 0 01-.5.5H1a.5.5 0 01-.5-.5V2a.5.5 0 01.5-.5z" stroke="#4F66EE" stroke-linecap="round" stroke-linejoin="round"/><path stroke="#4F66EE" d="M1 4.5h16"/></svg>