<svg width="18" height="18" fill="none" xmlns="http://www.w3.org/2000/svg"><g clip-path="url(#clip0)" fill="#4F66EE" stroke="#fff" stroke-width=".625"><path d="M8.626 5.125v-.001a.808.808 0 01.812-.811h.002a.808.808 0 01.811.81v4.108a.803.803 0 01-.262.6h-.001l-2.313 2.124s0 0 0 0a.814.814 0 01-1.099-1.2h.001l1.949-1.8.1-.093V5.125zm1.938 4.104V5.125v4.104z"/><path d="M4.173 1.777a8.687 8.687 0 119.654 14.446A8.687 8.687 0 014.173 1.777zm.903 13.095a7.063 7.063 0 107.848-11.745 7.063 7.063 0 00-7.848 11.745z"/></g><defs><clipPath id="clip0"><path fill="#fff" d="M0 0h18v18H0z"/></clipPath></defs></svg>