<svg width="18" height="18" fill="none" xmlns="http://www.w3.org/2000/svg"><g clip-path="url(#clip0)"><path d="M4.582 16.679h0l-4.05-4.715h0l-.003-.003a1.086 1.086 0 01-.204-.346 1.246 1.246 0 01-.005-.843c.047-.133.116-.252.2-.35a.878.878 0 01.288-.223.738.738 0 01.65.008c.105.052.202.13.285.23h0l.003.004 3.253 3.787.19.221.19-.22L16.284 1.53a.796.796 0 01.6-.28.804.804 0 01.599.297c.167.194.266.465.268.754.002.288-.094.56-.258.758L5.796 16.679h0a.876.876 0 01-.284.221.735.735 0 01-.322.074l-.001.25-.001-.25a.735.735 0 01-.322-.074.876.876 0 01-.284-.221z" fill="#4F66EE" stroke="#fff" stroke-width=".5"/></g><defs><clipPath id="clip0"><path fill="#fff" d="M0 0h18v18H0z"/></clipPath></defs></svg>