<svg width="18" height="18" fill="none" xmlns="http://www.w3.org/2000/svg"><path d="M15.987 14.164l-.004-.012-.004-.01-4.164-10.738a1.626 1.626 0 00-.343-.595c-.213-.232-.501-.309-.772-.309H8.83c-.27 0-.559.077-.772.31a1.626 1.626 0 00-.343.594L3.55 14.141l-.005.011-.003.012a.94.94 0 00.24.954.941.941 0 00.676.282h1.225c.265 0 .595-.048.83-.282l.01-.01.01-.012c.115-.13.217-.277.28-.443l.607-1.565h4.689l.606 1.566c.063.165.165.312.28.442l.01.011.01.01c.235.235.565.283.83.283h1.225a.94.94 0 00.676-.282.94.94 0 00.24-.954zM8.623 9.963l1.142-2.957 1.142 2.957H8.623z" stroke="#4F66EE"/><path d="M9.5 8h.5l.5 2H9l.5-2z" fill="#4F66EE"/></svg>