<svg width="18" height="18" fill="none" xmlns="http://www.w3.org/2000/svg"><path d="M4.473 10.968H1.35l-.468 1.197a.505.505 0 01-.099.153c-.048.048-.132.072-.252.072H.198a.215.215 0 01-.144-.054.215.215 0 01-.054-.144.34.34 0 01.036-.126l2.205-5.679a.775.775 0 01.135-.198c.06-.066.15-.099.27-.099h.54c.12 0 .21.033.27.099.06.066.105.132.135.198l2.196 5.679a.34.34 0 01.036.126.198.198 0 01-.063.144.183.183 0 01-.135.054h-.333c-.12 0-.204-.024-.252-.072a.505.505 0 01-.099-.153l-.468-1.197zm-2.808-.81h2.493L2.916 6.945l-1.251 3.213zM7.602 9.528v2.052h1.836c.198 0 .372-.027.522-.081.156-.054.285-.129.387-.225a.904.904 0 00.225-.324.932.932 0 00.081-.387c0-.132-.024-.261-.072-.387a.976.976 0 00-.603-.558c-.15-.06-.33-.09-.54-.09H7.602zm0-2.628v1.818h1.71c.402 0 .702-.078.9-.234.204-.156.306-.381.306-.675 0-.294-.102-.519-.306-.675-.198-.156-.498-.234-.9-.234h-1.71zm-.612 5.49a.234.234 0 01-.17-.072.234.234 0 01-.073-.171V6.333c0-.066.024-.123.072-.171a.234.234 0 01.171-.072h2.412c.384 0 .702.06.954.18.252.114.453.258.603.432.15.168.255.351.315.549.066.198.1.375.1.531a1.399 1.399 0 01-.307.9 1.163 1.163 0 01-.243.243c-.078.06-.135.102-.17.126.227.156.425.363.593.621.174.252.261.549.261.891 0 .228-.042.45-.126.666a1.75 1.75 0 01-.378.585 1.806 1.806 0 01-.62.423 2.219 2.219 0 01-.856.153H6.99zM13.371 8.484c-.012.27-.018.522-.018.756 0 .234.006.486.018.756.018.498.168.903.45 1.215.288.306.7.459 1.233.459.288 0 .531-.036.73-.108.197-.072.36-.165.485-.279.132-.114.231-.243.297-.387.072-.15.126-.3.162-.45a.203.203 0 01.09-.144.24.24 0 01.144-.054h.414a.17.17 0 01.135.063.17.17 0 01.063.135 1.87 1.87 0 01-.153.648 2.109 2.109 0 01-.45.666 2.386 2.386 0 01-.774.513c-.312.138-.693.207-1.143.207-.39 0-.738-.06-1.044-.18a2.47 2.47 0 01-.792-.513 2.296 2.296 0 01-.504-.765c-.12-.3-.186-.627-.198-.981a23.77 23.77 0 010-1.602c.012-.348.078-.672.198-.972.12-.3.288-.558.504-.774.222-.216.486-.384.792-.504A2.722 2.722 0 0115.054 6c.45 0 .831.069 1.143.207.318.138.576.312.774.522a2.01 2.01 0 01.603 1.305.198.198 0 01-.063.144.183.183 0 01-.135.054h-.414a.27.27 0 01-.144-.045.236.236 0 01-.09-.153 2.058 2.058 0 00-.162-.441 1.111 1.111 0 00-.297-.396 1.458 1.458 0 00-.486-.279 2.147 2.147 0 00-.729-.108c-.534 0-.945.156-1.233.468-.282.306-.432.708-.45 1.206z" fill="#4F66EE"/></svg>