<svg width="18" height="18" fill="none" xmlns="http://www.w3.org/2000/svg"><circle cx="8.5" cy="8.5" r="8" stroke="#4F66EE"/><path d="M9.07 4.928a2.628 2.628 0 011.49.72c.17.171.302.349.395.533.092.184.141.349.148.494a.186.186 0 01-.06.158.236.236 0 01-.157.059h-.405a.355.355 0 01-.178-.04.47.47 0 01-.128-.177 1.496 1.496 0 00-.168-.247 1.2 1.2 0 00-.306-.296 1.625 1.625 0 00-.464-.247 1.747 1.747 0 00-.641-.108c-.185 0-.362.023-.533.069-.165.04-.313.102-.444.187a.995.995 0 00-.316.326.814.814 0 00-.119.444c0 .171.037.316.109.434.079.119.2.227.365.326.171.092.385.178.642.257.256.079.569.167.937.266.375.099.691.207.948.326.263.118.477.253.641.404.165.145.283.316.356.514.079.19.118.408.118.651a1.755 1.755 0 01-.612 1.352c-.19.171-.424.313-.7.425a3.29 3.29 0 01-.919.217v.641a.256.256 0 01-.079.188.256.256 0 01-.187.079h-.405a.256.256 0 01-.187-.08.256.256 0 01-.08-.187v-.661a2.905 2.905 0 01-.858-.257 3.1 3.1 0 01-.67-.434 2.037 2.037 0 01-.435-.533A1.317 1.317 0 016 10.16a.2.2 0 01.06-.148.217.217 0 01.157-.07h.405c.066 0 .122.014.168.04.052.026.098.085.138.178.04.092.098.194.177.306.086.105.198.207.336.306a2.103 2.103 0 001.204.335 2.6 2.6 0 00.651-.079c.211-.052.395-.128.553-.227.158-.099.283-.217.375-.355a.818.818 0 00.138-.464.63.63 0 00-.158-.434 1.406 1.406 0 00-.454-.336 4.007 4.007 0 00-.73-.266 22.878 22.878 0 00-.967-.267 4.099 4.099 0 01-.839-.306 2.137 2.137 0 01-.563-.424 1.487 1.487 0 01-.315-.523 2.088 2.088 0 01-.09-.622c0-.217.04-.431.12-.642.078-.21.193-.4.345-.572.158-.171.355-.316.592-.434.237-.119.513-.198.829-.237v-.652c0-.072.026-.134.079-.187A.256.256 0 018.398 4h.405c.072 0 .135.026.188.079a.256.256 0 01.078.187v.662z" fill="#4F66EE"/></svg>