<svg width="18" height="18" fill="none" xmlns="http://www.w3.org/2000/svg"><mask id="a" fill="#fff"><path fill-rule="evenodd" clip-rule="evenodd" d="M10.785 1.247l4.387 4.55a.815.815 0 01.228.566v6.824a.812.812 0 01-.813.813H12.4v2.188a.812.812 0 01-.813.812H2.814A.812.812 0 012 16.187V4.813A.812.812 0 012.813 4H5V1.812A.812.812 0 015.813 1H10.2a.822.822 0 01.585.247zM5 5.625H3.625v9.75h7.15V14H5.812A.812.812 0 015 13.187V5.625zm7.998.25L10.85 3.659v2.216h2.148zm-6.373-3.25v9.75h7.15V7.5h-3.738a.813.813 0 01-.812-.803V2.625h-2.6z"/></mask><path fill-rule="evenodd" clip-rule="evenodd" d="M10.785 1.247l4.387 4.55a.815.815 0 01.228.566v6.824a.812.812 0 01-.813.813H12.4v2.188a.812.812 0 01-.813.812H2.814A.812.812 0 012 16.187V4.813A.812.812 0 012.813 4H5V1.812A.812.812 0 015.813 1H10.2a.822.822 0 01.585.247zM5 5.625H3.625v9.75h7.15V14H5.812A.812.812 0 015 13.187V5.625zm7.998.25L10.85 3.659v2.216h2.148zm-6.373-3.25v9.75h7.15V7.5h-3.738a.813.813 0 01-.812-.803V2.625h-2.6z" fill="#4F66EE"/><path d="M15.172 5.797l.253-.242-.253.242zm-4.387-4.55l.252-.243-.002-.002-.25.245zM15.4 6.362h-.35.35zM12.4 14v-.35h-.35V14h.35zM2.238 4.238l.247.247-.247-.247zM5 4v.35h.35V4H5zm.238-2.762L4.99.99l.248.248zM10.2 1l.001-.35H10.2V1zm.317.065l.136-.323-.136.323zM5 5.625h.35v-.35H5v.35zm-1.375 0v-.35h-.35v.35h.35zm0 9.75h-.35v.35h.35v-.35zm7.15 0v.35h.35v-.35h-.35zm0-1.375h.35v-.35h-.35V14zm-5.537-.238l-.248.247.248-.247zM10.85 3.658l.251-.243-.601-.62v.864h.35zm2.148 2.217v.35h.827l-.575-.594-.252.244zm-2.148 0h-.35v.35h.35v-.35zm-4.225 6.5h-.35v.35h.35v-.35zm0-9.75v-.35h-.35v.35h.35zm7.15 9.75v.35h.35v-.35h-.35zm0-4.875h.35v-.35h-.35v.35zm-3.738 0v-.35.35zm-.57-.235l-.247.25.246-.25zm-.242-.568h-.35v.004l.35-.004zm0-4.072h.35v-.35h-.35v.35zm6.2 2.929l-4.388-4.55-.504.486 4.388 4.55.503-.486zm.325.809c0-.302-.116-.591-.325-.808l-.505.484c.084.087.13.203.13.323h.7zm0 6.824V6.364h-.7v6.824h.7zm-.34.822c.217-.218.34-.513.34-.822h-.7c0 .123-.049.24-.136.328l.495.494zm-.822.341c.308 0 .604-.123.822-.34l-.495-.495a.462.462 0 01-.327.135v.7zm-2.188 0h2.188v-.7H12.4v.7zm-.35-.35v2.188h.7V14h-.7zm0 2.188c0 .122-.049.24-.136.327l.495.494c.218-.218.341-.513.341-.822h-.7zm-.136.327a.462.462 0 01-.326.135v.7c.308 0 .604-.123.822-.34l-.495-.495zm-.326.135H2.813v.7h8.774v-.7zm-8.775 0a.462.462 0 01-.328-.135l-.495.494c.218.218.514.341.823.341v-.7zm-.328-.135a.462.462 0 01-.135-.328h-.7c0 .309.122.604.34.822l.495-.494zm-.135-.328V4.813h-.7v11.375h.7zm0-11.375c0-.122.049-.24.135-.327L1.99 3.99c-.218.218-.34.514-.34.822h.7zm.135-.327a.463.463 0 01.328-.135v-.7c-.309 0-.605.122-.823.34l.495.495zm.328-.135H5v-.7H2.812v.7zM4.65 1.813V4h.7V1.812h-.7zM4.99.99c-.218.218-.34.514-.34.823h.7c0-.123.049-.24.135-.328L4.99.99zm.822-.34c-.308 0-.604.122-.822.34l.495.495a.463.463 0 01.327-.135v-.7zm4.388 0H5.813v.7H10.2v-.7zm.453.092a1.172 1.172 0 00-.452-.092l-.002.7c.063 0 .124.013.182.037l.272-.645zm.382.26a1.172 1.172 0 00-.382-.26l-.272.645c.058.025.11.06.154.105l.5-.49zM5 5.275H3.625v.7H5v-.7zm-1.725.35v9.75h.7v-9.75h-.7zm.35 10.1h7.15v-.7h-7.15v.7zm7.5-.35V14h-.7v1.375h.7zM5.812 14.35h4.963v-.7H5.812v.7zm-.822-.34c.218.217.514.34.822.34v-.7a.462.462 0 01-.327-.136l-.495.495zm-.34-.822c0 .308.122.603.34.821l.495-.495a.462.462 0 01-.135-.326h-.7zm0-7.563v7.563h.7V5.625h-.7zm5.949-1.723l2.148 2.217.503-.488L11.1 3.415l-.502.487zm.601 1.973V3.659h-.7v2.216h.7zm1.798-.35H10.85v.7h2.148v-.7zm-6.023 6.85v-9.75h-.7v9.75h.7zm6.8-.35h-7.15v.7h7.15v-.7zm-.35-4.525v4.875h.7V7.5h-.7zm-3.388.35h3.738v-.7h-3.738v.7zm-.817-.336c.218.215.512.336.817.336v-.7a.463.463 0 01-.325-.134l-.492.498zm-.345-.813c.004.306.128.598.345.813l.492-.498a.463.463 0 01-.137-.323l-.7.008zm0-4.076v4.072h.7V2.625h-.7zm-2.25.35h2.6v-.7h-2.6v.7z" fill="#fff" mask="url(#a)"/></svg>